<?xml version="1.0" encoding="utf-8"?>
<!-- Generator: Adobe Illustrator 24.3.0, SVG Export Plug-In . SVG Version: 6.00 Build 0)  -->
<svg version="1.1" id="Layer_1" xmlns="http://www.w3.org/2000/svg" xmlns:xlink="http://www.w3.org/1999/xlink" x="0px" y="0px" viewBox="0 0 25 25" style="enable-background:new 0 0 25 25;" xml:space="preserve">
	<g>
		<path d="M12.5,0C5.6,0,0,5.7,0,12.8C0,18.5,3.6,23.3,8.5,25c0.6,0.1,0.9-0.3,0.9-0.6c0-0.3,0-1.3,0-2.4c-3.1,0.6-4-0.8-4.2-1.5
		C5,20.1,4.4,19,3.9,18.7c-0.4-0.2-1.1-0.8,0-0.8c1,0,1.7,0.9,1.9,1.3c1.1,1.9,2.9,1.4,3.6,1.1c0.1-0.8,0.4-1.4,0.8-1.7
		c-2.8-0.3-5.7-1.4-5.7-6.3c0-1.4,0.5-2.5,1.3-3.4C5.7,8.4,5.3,7.1,6,5.3c0,0,1-0.3,3.4,1.3c1-0.3,2.1-0.4,3.1-0.4
		c1.1,0,2.1,0.1,3.1,0.4C18,5,19.1,5.3,19.1,5.3c0.7,1.8,0.2,3.1,0.1,3.4c0.8,0.9,1.3,2,1.3,3.4c0,4.9-2.9,6-5.7,6.3
		c0.5,0.4,0.8,1.2,0.8,2.4c0,1.7,0,3.1,0,3.5c0,0.3,0.2,0.7,0.9,0.6c4.9-1.7,8.5-6.5,8.5-12.2C25,5.7,19.4,0,12.5,0z" />
	</g>
</svg>