<?xml version="1.0" encoding="UTF-8"?>
<svg width="2711px" height="4524px" viewBox="0 0 2711 4524" version="1.1" xmlns="http://www.w3.org/2000/svg" xmlns:xlink="http://www.w3.org/1999/xlink">
    <title>Background</title>
    <defs>
        <linearGradient x1="50%" y1="0%" x2="50%" y2="100%" id="linearGradient-1">
            <stop stop-color="#EEEEEE" offset="0%"></stop>
            <stop stop-color="#D8D8D8" offset="100%"></stop>
        </linearGradient>
        <linearGradient x1="50%" y1="0%" x2="50%" y2="100%" id="linearGradient-2">
            <stop stop-color="#EEEEEE" offset="0%"></stop>
            <stop stop-color="#D8D8D8" offset="100%"></stop>
        </linearGradient>
        <linearGradient x1="50%" y1="0%" x2="50%" y2="100%" id="linearGradient-3">
            <stop stop-color="#EEEEEE" offset="0%"></stop>
            <stop stop-color="#D8D8D8" offset="100%"></stop>
        </linearGradient>
        <linearGradient x1="50%" y1="0%" x2="50%" y2="100%" id="linearGradient-4">
            <stop stop-color="#EEEEEE" offset="0%"></stop>
            <stop stop-color="#D8D8D8" offset="100%"></stop>
        </linearGradient>
        <linearGradient x1="50%" y1="0%" x2="50%" y2="100%" id="linearGradient-5">
            <stop stop-color="#EEEEEE" offset="0%"></stop>
            <stop stop-color="#D8D8D8" offset="100%"></stop>
        </linearGradient>
        <linearGradient x1="50%" y1="0%" x2="50%" y2="100%" id="linearGradient-6">
            <stop stop-color="#EEEEEE" offset="0%"></stop>
            <stop stop-color="#D8D8D8" offset="100%"></stop>
        </linearGradient>
        <linearGradient x1="50%" y1="0%" x2="50%" y2="100%" id="linearGradient-7">
            <stop stop-color="#EEEEEE" offset="0%"></stop>
            <stop stop-color="#D8D8D8" offset="100%"></stop>
        </linearGradient>
        <linearGradient x1="50%" y1="0%" x2="50%" y2="100%" id="linearGradient-8">
            <stop stop-color="#EEEEEE" offset="0%"></stop>
            <stop stop-color="#D8D8D8" offset="100%"></stop>
        </linearGradient>
        <linearGradient x1="50%" y1="0%" x2="50%" y2="100%" id="linearGradient-9">
            <stop stop-color="#EEEEEE" offset="0%"></stop>
            <stop stop-color="#D8D8D8" offset="100%"></stop>
        </linearGradient>
        <linearGradient x1="50%" y1="0%" x2="50%" y2="100%" id="linearGradient-10">
            <stop stop-color="#EEEEEE" offset="0%"></stop>
            <stop stop-color="#D8D8D8" offset="100%"></stop>
        </linearGradient>
        <linearGradient x1="50%" y1="0%" x2="50%" y2="100%" id="linearGradient-11">
            <stop stop-color="#EEEEEE" offset="0%"></stop>
            <stop stop-color="#D8D8D8" offset="100%"></stop>
        </linearGradient>
        <linearGradient x1="50%" y1="0%" x2="50%" y2="100%" id="linearGradient-12">
            <stop stop-color="#EEEEEE" offset="0%"></stop>
            <stop stop-color="#D8D8D8" offset="100%"></stop>
        </linearGradient>
        <linearGradient x1="50%" y1="0%" x2="50%" y2="100%" id="linearGradient-13">
            <stop stop-color="#EEEEEE" offset="0%"></stop>
            <stop stop-color="#D8D8D8" offset="100%"></stop>
        </linearGradient>
        <linearGradient x1="50%" y1="0%" x2="50%" y2="100%" id="linearGradient-14">
            <stop stop-color="#EEEEEE" offset="0%"></stop>
            <stop stop-color="#D8D8D8" offset="100%"></stop>
        </linearGradient>
        <linearGradient x1="50%" y1="0%" x2="50%" y2="100%" id="linearGradient-15">
            <stop stop-color="#EEEEEE" offset="0%"></stop>
            <stop stop-color="#D8D8D8" offset="100%"></stop>
        </linearGradient>
    </defs>
    <g id="Page-1" stroke="none" stroke-width="1" fill="none" fill-rule="evenodd" opacity="0.2">
        <g id="Welcome" transform="translate(827.000000, 899.000000)" stroke="#979797">
            <g id="Background" transform="translate(-826.000000, -898.000000)">
                <g id="Path-2_looper">
                    <path d="M1677.69679,474.775722 C2294.98021,740.04189 2594.79192,1031.46333 2577.13191,1349.04005 C2550.6419,1825.40512 776.023241,2280.76705 231.517269,1942.18065 C-131.486713,1716.45638 350.573126,1227.3214 1677.69679,474.775722 Z" id="Path-2_40" opacity="0.220636505" transform="translate(1346.218746, 1267.117249) rotate(351.000000) translate(-1346.218746, -1267.117249) "></path>
                    <path d="M1628.56481,484.340212 C2231.14533,767.224057 2530.46843,1066.40212 2526.53411,1381.87441 C2520.63264,1855.08284 838.119819,2253.80137 302.303494,1900.1892 C-54.9073889,1664.44775 387.179716,1192.49809 1628.56481,484.340212 Z" id="Path-2_39" opacity="0.0926836047" transform="translate(1354.573093, 1259.888113) rotate(342.000000) translate(-1354.573093, -1259.888113) "></path>
                    <path d="M1583.24372,481.137363 C2163.88492,779.346368 2457.62697,1086.87292 2464.46985,1403.71701 C2474.73417,1878.98314 893.311335,2240.42424 373.582918,1872.71144 C27.0973067,1627.56958 430.317573,1163.71155 1583.24372,481.137363 Z" id="Path-2_38" opacity="0.5907885" transform="translate(1359.001560, 1252.408416) rotate(333.000000) translate(-1359.001560, -1252.408416) "></path>
                    <path d="M1545.12192,469.431812 C2097.81427,778.632472 2381.07334,1093.50229 2394.89911,1414.04127 C2415.63778,1894.84973 937.725442,2239.70888 440.661763,1861.01067 C109.285976,1608.54519 477.439363,1144.68558 1545.12192,469.431812 Z" id="Path-2_37" opacity="0.982634286" transform="translate(1359.022139, 1245.892358) rotate(324.000000) translate(-1359.022139, -1245.892358) "></path>
                    <path d="M1516.9654,454.194333 C2037.46658,768.5382 2306.00937,1088.32431 2322.59377,1413.55267 C2347.47037,1901.39521 968.987239,2249.58438 499.72829,1864.79359 C186.88899,1608.2664 525.968027,1138.06665 1516.9654,454.194333 Z" id="Path-2_36" opacity="0.354904097" transform="translate(1355.030803, 1241.709155) rotate(315.000000) translate(-1355.030803, -1241.709155) "></path>
                    <path d="M1500.93137,440.301436 C1987.09273,753.078017 2237.73763,1074.24103 2252.86608,1403.79049 C2275.55875,1898.11467 986.665197,2266.82714 548.481766,1882.04333 C256.359479,1625.52079 573.842679,1144.94016 1500.93137,440.301436 Z" id="Path-2_35" opacity="0.372624993" transform="translate(1348.327608, 1241.156729) rotate(306.000000) translate(-1348.327608, -1241.156729) "></path>
                    <path d="M1498.44152,431.708274 C1950.3236,736.054356 2181.20742,1054.34923 2191.09298,1386.59291 C2205.92132,1884.95842 992.265076,2287.09591 586.321336,1908.95959 C315.692176,1656.86871 619.732236,1164.4516 1498.44152,431.708274 Z" id="Path-2_34" opacity="0.178507928" transform="translate(1340.981698, 1244.916188) rotate(297.000000) translate(-1340.981698, -1244.916188) "></path>
                    <path d="M1509.75954,430.925952 C1929.5164,720.515796 2140.21518,1031.4498 2141.8559,1363.72797 C2144.30915,1862.14521 988.674215,2305.25308 614.016721,1940.25794 C364.245058,1696.92785 662.825999,1193.81719 1509.75954,430.925952 Z" id="Path-2_33" opacity="0.146836844" transform="translate(1335.272690, 1252.625418) rotate(288.000000) translate(-1335.272690, -1252.625418) "></path>
                    <path d="M1533.45323,438.843125 C1925.00339,708.494871 2116.49198,1007.79319 2107.91901,1336.73808 C2095.05955,1830.15541 979.245355,2315.96099 633.01314,1969.80894 C402.191663,1739.04091 702.338361,1228.71897 1533.45323,438.843125 Z" id="Path-2_32" opacity="0.0949016958" transform="translate(1332.975484, 1262.776721) rotate(279.000000) translate(-1332.975484, -1262.776721) "></path>
                    <path d="M1566.20811,455.050023 C1934.75092,701.162877 2109.23877,985.16221 2089.67166,1307.04802 C2060.321,1789.87674 967.00409,2314.39031 644.81484,1991.48922 C430.022007,1776.22182 737.153097,1264.07543 1566.20811,455.050023 Z" id="Path-2_31" opacity="0.71399424" transform="translate(1334.834648, 1273.065795) rotate(270.000000) translate(-1334.834648, -1273.065795) "></path>
                    <path d="M1603.18592,478.493652 C1954.61244,699.348175 2115.25103,965.360233 2085.10169,1276.52983 C2039.87767,1743.28422 954.296107,2297.56617 650.766613,2000.62496 C448.413617,1802.66416 765.88672,1295.28705 1603.18592,478.493652 Z" id="Path-2_30" opacity="0.656528629" transform="translate(1340.182011, 1281.343574) rotate(261.000000) translate(-1340.182011, -1281.343574) "></path>
                    <path d="M1638.90495,508.086316 C1979.1687,703.892607 2129.68367,950.397845 2090.44988,1247.60203 C2031.5992,1693.40831 942.885539,2264.7067 652.227622,1994.58326 C458.455677,1814.50097 787.348119,1319.00199 1638.90495,508.086316 Z" id="Path-2_29" opacity="0.130915533" transform="translate(1347.441309, 1286.195735) rotate(252.000000) translate(-1347.441309, -1286.195735) "></path>
                    <path d="M1668.07136,542.857876 C2002.5874,715.627401 2146.87167,942.365075 2100.92417,1223.0709 C2032.00291,1644.12963 934.049761,2217.38958 650.674366,1973.10586 C461.757435,1810.25004 800.889766,1333.50072 1668.07136,542.857876 Z" id="Path-2_28" opacity="0.411325463" transform="translate(1354.615612, 1287.234215) rotate(243.000000) translate(-1354.615612, -1287.234215) "></path>
                    <path d="M1686.40665,581.953464 C2019.53882,735.191659 2161.25088,943.113829 2111.54281,1205.71997 C2036.98071,1599.62919 928.771823,2159.1506 647.839523,1938.09728 C460.551323,1790.72839 806.740364,1338.68046 1686.40665,581.953464 Z" id="Path-2_27" opacity="0.0228706888" transform="translate(1359.874975, 1285.053982) rotate(234.000000) translate(-1359.874975, -1285.053982) "></path>
                    <path d="M1691.25361,624.479326 C2025.9389,762.735227 2168.14848,953.829742 2117.88233,1197.76287 C2042.48311,1563.66256 927.88524,2094.70741 645.748159,1893.01434 C457.656771,1758.55229 806.158589,1335.70729 1691.25361,624.479326 Z" id="Path-2_26" opacity="0.466483453" transform="translate(1362.013685, 1280.915746) rotate(225.000000) translate(-1362.013685, -1280.915746) "></path>
                    <path d="M1681.82772,669.276638 C2019.36878,797.621818 2164.28312,974.652088 2116.57073,1200.36745 C2045.00214,1538.94048 932.065864,2029.17726 646.561967,1842.17769 C456.226036,1717.51132 801.31462,1326.5443 1681.82772,669.276638 Z" id="Path-2_25" opacity="0.212272195" transform="translate(1360.624954, 1276.348284) rotate(216.000000) translate(-1360.624954, -1276.348284) "></path>
                    <path d="M1659.21756,714.78898 C1999.25655,838.267432 2148.05237,1004.43984 2105.60502,1213.3062 C2041.93401,1526.60574 941.805428,1967.20108 652.381532,1789.95901 C459.432269,1671.79762 795.044278,1313.40761 1659.21756,714.78898 Z" id="Path-2_24" opacity="0.865545565" transform="translate(1356.113030, 1272.714621) rotate(207.000000) translate(-1356.113030, -1272.714621) "></path>
                    <path d="M1626.06509,759.043549 C1966.73111,882.159684 2119.50362,1040.76735 2084.38262,1234.86656 C2031.70112,1526.01537 957.279363,1912.30025 664.939953,1740.13121 C470.047012,1625.35185 790.422058,1298.32263 1626.06509,759.043549 Z" id="Path-2_23" opacity="0.437000228" transform="translate(1349.479761, 1270.888228) rotate(198.000000) translate(-1349.479761, -1270.888228) "></path>
                    <path d="M1586.02967,799.835966 C1924.23447,926.131064 2080.06217,1080.21105 2053.51277,1262.07593 C2013.68866,1534.87326 978.185419,1866.53361 685.282501,1695.46653 C490.01389,1581.42181 790.262947,1282.87828 1586.02967,799.835966 Z" id="Path-2_22" opacity="0.581837105" transform="translate(1341.990917, 1271.108737) rotate(189.000000) translate(-1341.990917, -1271.108737) "></path>
                    <path d="M1543.1671,835.13985 C1875.00908,966.896728 2032.1208,1118.93619 2014.50225,1291.25823 C1988.07443,1549.74129 1003.63399,1830.5404 713.529518,1657.67483 C520.126535,1542.43111 796.672397,1268.25279 1543.1671,835.13985 Z" id="Path-2_21" opacity="0.524021581" transform="translate(1334.834648, 1273.065795) rotate(180.000000) translate(-1334.834648, -1273.065795) "></path>
                    <path d="M1501.39091,863.640535 C1822.61787,1001.74031 1978.63815,1153.46005 1969.45175,1318.79977 C1955.67214,1566.80934 1032.19535,1803.89939 748.839739,1627.62636 C559.935996,1510.11101 810.786388,1255.44907 1501.39091,863.640535 Z" id="Path-2_20" opacity="0.850098462" transform="translate(1328.907262, 1276.160139) rotate(171.000000) translate(-1328.907262, -1276.160139) "></path>
                    <path d="M1464.11778,885.118128 C1770.59527,1029.05525 1922.83702,1181.28926 1920.84302,1341.82016 C1917.85202,1582.61652 1062.13821,1785.53811 789.615286,1605.60907 C607.933334,1485.65638 832.767498,1245.49273 1464.11778,885.118128 Z" id="Path-2_19" opacity="0.152291036" transform="translate(1324.789537, 1279.768794) rotate(162.000000) translate(-1324.789537, -1279.768794) "></path>
                    <path d="M1434.07464,900.378996 C1722.20894,1048.42315 1867.97884,1201.10115 1871.38432,1358.41298 C1876.49253,1594.38072 1091.7724,1773.87748 833.861978,1591.32329 C661.921697,1469.62049 861.992583,1239.30573 1434.07464,900.378996 Z" id="Path-2_18" opacity="0.284729483" transform="translate(1322.834578, 1283.320010) rotate(153.000000) translate(-1322.834578, -1283.320010) "></path>
                    <path d="M1413.02192,910.779026 C1680.09444,1060.25711 1816.97703,1212.48555 1823.66967,1367.46434 C1833.70864,1599.93253 1119.59443,1766.7217 879.399069,1583.63991 C719.268829,1461.58538 897.143114,1237.29842 1413.02192,910.779026 Z" id="Path-2_17" opacity="0.0038138468" transform="translate(1323.138518, 1286.202546) rotate(144.000000) translate(-1323.138518, -1286.202546) "></path>
                    <path d="M1401.32933,917.807467 C1645.7114,1065.46692 1771.80208,1215.69333 1779.60137,1368.48667 C1791.3003,1597.67669 1144.13211,1761.31334 923.804852,1580.55548 C776.920012,1460.05025 936.094839,1239.13424 1401.32933,917.807467 Z" id="Path-2_16" opacity="0.559594606" transform="translate(1325.346404, 1287.794491) rotate(135.000000) translate(-1325.346404, -1287.794491) "></path>
                    <path d="M1398.08666,922.900603 C1619.31874,1065.30866 1733.38319,1211.54558 1740.27999,1361.61136 C1750.62519,1586.71003 1164.14931,1754.66447 964.746,1579.46457 C831.81046,1462.66463 976.257345,1243.80998 1398.08666,922.900603 Z" id="Path-2_15" opacity="0.0593389799" transform="translate(1328.689553, 1287.593443) rotate(126.000000) translate(-1328.689553, -1287.593443) "></path>
                    <path d="M1401.33559,927.53415 C1600.071,1061.46597 1701.61803,1201.54567 1705.97666,1347.77326 C1712.5146,1567.11465 1178.79607,1744.15229 1000.26057,1577.74191 C881.236892,1466.80165 1014.92857,1250.06573 1401.33559,927.53415 Z" id="Path-2_14" opacity="0.119446108" transform="translate(1332.126752, 1285.453976) rotate(117.000000) translate(-1332.126752, -1285.453976) "></path>
                    <path d="M1408.53572,933.324658 C1586.36423,1056.09727 1675.63023,1187.92632 1676.33374,1328.81181 C1677.3856,1540.14005 1187.8364,1728.05341 1029.11138,1573.30763 C923.294699,1470.14378 1049.76948,1256.81612 1408.53572,933.324658 Z" id="Path-2_13" opacity="0.0477757485" transform="translate(1334.646395, 1281.731846) rotate(108.000000) translate(-1334.646395, -1281.731846) "></path>
                    <path d="M1417.06544,941.980267 C1576.24506,1051.69713 1654.09456,1173.48097 1650.61392,1307.33179 C1645.39296,1508.10801 1191.79039,1705.80632 1051.03271,1564.95999 C957.194252,1471.06244 1079.20516,1263.40253 1417.06544,941.980267 Z" id="Path-2_12" opacity="0.492835201" transform="translate(1335.580906, 1277.251185) rotate(99.000000) translate(-1335.580906, -1277.251185) "></path>
                    <path d="M1424.69529,955.02306 C1567.82965,1050.7112 1635.59711,1161.12951 1627.99765,1286.27801 C1616.59846,1474.00076 1191.97691,1677.93048 1066.8453,1552.38724 C983.424234,1468.69175 1102.70756,1269.57036 1424.69529,955.02306 Z" id="Path-2_11" opacity="0.692039221" transform="translate(1334.834648, 1273.065795) rotate(90.000000) translate(-1334.834648, -1273.065795) "></path>
                    <path d="M1429.95078,973.32943 C1559.65329,1054.95091 1618.93822,1153.25591 1607.80557,1268.24444 C1591.10659,1440.72724 1190.42642,1645.53346 1078.40318,1535.796 C1003.72102,1462.6377 1120.90355,1275.14884 1429.95078,973.32943 Z" id="Path-2_10" opacity="0.577681014" transform="translate(1332.863289, 1270.006223) rotate(81.000000) translate(-1332.863289, -1270.006223) "></path>
                    <path d="M1432.05805,996.919855 C1550.64407,1065.27471 1603.095,1151.31679 1589.41082,1255.04609 C1568.88457,1410.64004 1189.41457,1609.99096 1088.12022,1515.69981 C1020.59066,1452.83904 1135.2366,1279.91239 1432.05805,996.919855 Z" id="Path-2_9" opacity="0.878844145" transform="translate(1330.440258, 1268.481677) rotate(72.000000) translate(-1330.440258, -1268.481677) "></path>
                    <path d="M1430.79343,1024.94352 C1540.0353,1081.48181 1587.14592,1155.66332 1572.12531,1247.48807 C1549.59438,1385.22519 1190.98049,1572.69029 1098.44451,1492.76058 C1036.75386,1439.4741 1147.53683,1283.53508 1430.79343,1024.94352 Z" id="Path-2_8" opacity="0.895540981" transform="translate(1328.372051, 1268.427376) rotate(63.000000) translate(-1328.372051, -1268.427376) "></path>
                    <path d="M1426.27866,1055.91105 C1527.24961,1102.47606 1570.19219,1165.63514 1555.10641,1245.38829 C1532.47774,1365.01802 1196.51137,1534.86989 1111.36825,1467.71242 C1054.60616,1422.94078 1159.5763,1285.67365 1426.27866,1055.91105 Z" id="Path-2_7" opacity="0.613482622" transform="translate(1327.237509, 1269.420098) rotate(54.000000) translate(-1327.237509, -1269.420098) "></path>
                    <path d="M1418.85595,1088.01759 C1511.87638,1126.56441 1551.39045,1179.81687 1537.39815,1247.77497 C1516.40971,1349.71213 1206.54404,1497.57548 1128.1355,1441.35872 C1075.86314,1403.88089 1172.76995,1286.10051 1418.85595,1088.01759 Z" id="Path-2_6" opacity="0.293587258" transform="translate(1327.270396, 1270.871969) rotate(45.000000) translate(-1327.270396, -1270.871969) "></path>
                    <path d="M1409.01814,1119.50852 C1493.70447,1151.83197 1530.05144,1196.39028 1518.05907,1253.18346 C1500.07051,1338.37323 1220.76243,1461.64075 1149.13879,1414.56229 C1101.3897,1383.17664 1188.01615,1284.82539 1409.01814,1119.50852 Z" id="Path-2_5" opacity="0.168210253" transform="translate(1328.351915, 1272.231787) rotate(36.000000) translate(-1328.351915, -1272.231787) "></path>
                    <path d="M1397.38854,1148.99357 C1472.79207,1176.5007 1505.77768,1213.49553 1496.34539,1259.97805 C1482.19695,1329.70184 1238.17039,1427.67901 1173.99706,1388.20994 C1131.21484,1361.89722 1205.67866,1282.15843 1397.38854,1148.99357 Z" id="Path-2_4" opacity="0.13526562" transform="translate(1330.103661, 1273.135997) rotate(27.000000) translate(-1330.103661, -1273.135997) "></path>
                    <path d="M1384.71445,1175.65624 C1449.52669,1199.21105 1478.58423,1229.53899 1471.88709,1266.64006 C1461.84139,1322.29166 1257.37363,1396.06774 1201.76053,1363.13909 C1164.68513,1341.18665 1225.66977,1278.69237 1384.71445,1175.65624 Z" id="Path-2_3" opacity="0.600373345" transform="translate(1332.037551, 1273.475751) rotate(18.000000) translate(-1332.037551, -1273.475751) "></path>
                    <path d="M1371.84633,1199.14087 C1424.63726,1219.05481 1448.95443,1243.33681 1444.79785,1271.98686 C1438.56297,1314.96194 1276.88299,1367.15996 1231.16731,1340.19483 C1200.69019,1322.21808 1247.5832,1275.20009 1371.84633,1199.14087 Z" id="Path-2_2" opacity="0.521756791" transform="translate(1333.708116, 1273.369380) rotate(9.000000) translate(-1333.708116, -1273.369380) "></path>
                    <path d="M1359.73251,1220.12104 C1399.39101,1236.0503 1418.16747,1254.4317 1416.06187,1275.26524 C1412.90348,1306.51555 1295.25278,1340.46385 1260.58233,1319.56459 C1237.4687,1305.63176 1270.51876,1272.48391 1359.73251,1220.12104 Z" id="Path-2_1" opacity="0.505888532"></path>
                </g>
                <g id="Path-2_looper" transform="translate(1386.006017, 3166.997898) rotate(90.000000) translate(-1386.006017, -3166.997898) translate(31.506017, 1924.997898)">
                    <path d="M1677.69679,474.775722 C2294.98021,740.04189 2594.79192,1031.46333 2577.13191,1349.04005 C2550.6419,1825.40512 776.023241,2280.76705 231.517269,1942.18065 C-131.486713,1716.45638 350.573126,1227.3214 1677.69679,474.775722 Z" id="Path-2_40" opacity="0.220636505" transform="translate(1346.218746, 1267.117249) rotate(351.000000) translate(-1346.218746, -1267.117249) "></path>
                    <path d="M1628.56481,484.340212 C2231.14533,767.224057 2530.46843,1066.40212 2526.53411,1381.87441 C2520.63264,1855.08284 838.119819,2253.80137 302.303494,1900.1892 C-54.9073889,1664.44775 387.179716,1192.49809 1628.56481,484.340212 Z" id="Path-2_39" opacity="0.0926836047" transform="translate(1354.573093, 1259.888113) rotate(342.000000) translate(-1354.573093, -1259.888113) "></path>
                    <path d="M1583.24372,481.137363 C2163.88492,779.346368 2457.62697,1086.87292 2464.46985,1403.71701 C2474.73417,1878.98314 893.311335,2240.42424 373.582918,1872.71144 C27.0973067,1627.56958 430.317573,1163.71155 1583.24372,481.137363 Z" id="Path-2_38" opacity="0.5907885" transform="translate(1359.001560, 1252.408416) rotate(333.000000) translate(-1359.001560, -1252.408416) "></path>
                    <path d="M1545.12192,469.431812 C2097.81427,778.632472 2381.07334,1093.50229 2394.89911,1414.04127 C2415.63778,1894.84973 937.725442,2239.70888 440.661763,1861.01067 C109.285976,1608.54519 477.439363,1144.68558 1545.12192,469.431812 Z" id="Path-2_37" opacity="0.982634286" transform="translate(1359.022139, 1245.892358) rotate(324.000000) translate(-1359.022139, -1245.892358) "></path>
                    <path d="M1516.9654,454.194333 C2037.46658,768.5382 2306.00937,1088.32431 2322.59377,1413.55267 C2347.47037,1901.39521 968.987239,2249.58438 499.72829,1864.79359 C186.88899,1608.2664 525.968027,1138.06665 1516.9654,454.194333 Z" id="Path-2_36" opacity="0.354904097" transform="translate(1355.030803, 1241.709155) rotate(315.000000) translate(-1355.030803, -1241.709155) "></path>
                    <path d="M1500.93137,440.301436 C1987.09273,753.078017 2237.73763,1074.24103 2252.86608,1403.79049 C2275.55875,1898.11467 986.665197,2266.82714 548.481766,1882.04333 C256.359479,1625.52079 573.842679,1144.94016 1500.93137,440.301436 Z" id="Path-2_35" opacity="0.372624993" transform="translate(1348.327608, 1241.156729) rotate(306.000000) translate(-1348.327608, -1241.156729) "></path>
                    <path d="M1498.44152,431.708274 C1950.3236,736.054356 2181.20742,1054.34923 2191.09298,1386.59291 C2205.92132,1884.95842 992.265076,2287.09591 586.321336,1908.95959 C315.692176,1656.86871 619.732236,1164.4516 1498.44152,431.708274 Z" id="Path-2_34" opacity="0.178507928" transform="translate(1340.981698, 1244.916188) rotate(297.000000) translate(-1340.981698, -1244.916188) "></path>
                    <path d="M1509.75954,430.925952 C1929.5164,720.515796 2140.21518,1031.4498 2141.8559,1363.72797 C2144.30915,1862.14521 988.674215,2305.25308 614.016721,1940.25794 C364.245058,1696.92785 662.825999,1193.81719 1509.75954,430.925952 Z" id="Path-2_33" opacity="0.146836844" transform="translate(1335.272690, 1252.625418) rotate(288.000000) translate(-1335.272690, -1252.625418) "></path>
                    <path d="M1533.45323,438.843125 C1925.00339,708.494871 2116.49198,1007.79319 2107.91901,1336.73808 C2095.05955,1830.15541 979.245355,2315.96099 633.01314,1969.80894 C402.191663,1739.04091 702.338361,1228.71897 1533.45323,438.843125 Z" id="Path-2_32" opacity="0.0949016958" transform="translate(1332.975484, 1262.776721) rotate(279.000000) translate(-1332.975484, -1262.776721) "></path>
                    <path d="M1566.20811,455.050023 C1934.75092,701.162877 2109.23877,985.16221 2089.67166,1307.04802 C2060.321,1789.87674 967.00409,2314.39031 644.81484,1991.48922 C430.022007,1776.22182 737.153097,1264.07543 1566.20811,455.050023 Z" id="Path-2_31" opacity="0.71399424" transform="translate(1334.834648, 1273.065795) rotate(270.000000) translate(-1334.834648, -1273.065795) "></path>
                    <path d="M1603.18592,478.493652 C1954.61244,699.348175 2115.25103,965.360233 2085.10169,1276.52983 C2039.87767,1743.28422 954.296107,2297.56617 650.766613,2000.62496 C448.413617,1802.66416 765.88672,1295.28705 1603.18592,478.493652 Z" id="Path-2_30" opacity="0.656528629" transform="translate(1340.182011, 1281.343574) rotate(261.000000) translate(-1340.182011, -1281.343574) "></path>
                    <path d="M1638.90495,508.086316 C1979.1687,703.892607 2129.68367,950.397845 2090.44988,1247.60203 C2031.5992,1693.40831 942.885539,2264.7067 652.227622,1994.58326 C458.455677,1814.50097 787.348119,1319.00199 1638.90495,508.086316 Z" id="Path-2_29" opacity="0.130915533" transform="translate(1347.441309, 1286.195735) rotate(252.000000) translate(-1347.441309, -1286.195735) "></path>
                    <path d="M1668.07136,542.857876 C2002.5874,715.627401 2146.87167,942.365075 2100.92417,1223.0709 C2032.00291,1644.12963 934.049761,2217.38958 650.674366,1973.10586 C461.757435,1810.25004 800.889766,1333.50072 1668.07136,542.857876 Z" id="Path-2_28" opacity="0.411325463" transform="translate(1354.615612, 1287.234215) rotate(243.000000) translate(-1354.615612, -1287.234215) "></path>
                    <path d="M1686.40665,581.953464 C2019.53882,735.191659 2161.25088,943.113829 2111.54281,1205.71997 C2036.98071,1599.62919 928.771823,2159.1506 647.839523,1938.09728 C460.551323,1790.72839 806.740364,1338.68046 1686.40665,581.953464 Z" id="Path-2_27" opacity="0.0228706888" transform="translate(1359.874975, 1285.053982) rotate(234.000000) translate(-1359.874975, -1285.053982) "></path>
                    <path d="M1691.25361,624.479326 C2025.9389,762.735227 2168.14848,953.829742 2117.88233,1197.76287 C2042.48311,1563.66256 927.88524,2094.70741 645.748159,1893.01434 C457.656771,1758.55229 806.158589,1335.70729 1691.25361,624.479326 Z" id="Path-2_26" opacity="0.466483453" transform="translate(1362.013685, 1280.915746) rotate(225.000000) translate(-1362.013685, -1280.915746) "></path>
                    <path d="M1681.82772,669.276638 C2019.36878,797.621818 2164.28312,974.652088 2116.57073,1200.36745 C2045.00214,1538.94048 932.065864,2029.17726 646.561967,1842.17769 C456.226036,1717.51132 801.31462,1326.5443 1681.82772,669.276638 Z" id="Path-2_25" opacity="0.212272195" transform="translate(1360.624954, 1276.348284) rotate(216.000000) translate(-1360.624954, -1276.348284) "></path>
                    <path d="M1659.21756,714.78898 C1999.25655,838.267432 2148.05237,1004.43984 2105.60502,1213.3062 C2041.93401,1526.60574 941.805428,1967.20108 652.381532,1789.95901 C459.432269,1671.79762 795.044278,1313.40761 1659.21756,714.78898 Z" id="Path-2_24" opacity="0.865545565" transform="translate(1356.113030, 1272.714621) rotate(207.000000) translate(-1356.113030, -1272.714621) "></path>
                    <path d="M1626.06509,759.043549 C1966.73111,882.159684 2119.50362,1040.76735 2084.38262,1234.86656 C2031.70112,1526.01537 957.279363,1912.30025 664.939953,1740.13121 C470.047012,1625.35185 790.422058,1298.32263 1626.06509,759.043549 Z" id="Path-2_23" opacity="0.437000228" transform="translate(1349.479761, 1270.888228) rotate(198.000000) translate(-1349.479761, -1270.888228) "></path>
                    <path d="M1586.02967,799.835966 C1924.23447,926.131064 2080.06217,1080.21105 2053.51277,1262.07593 C2013.68866,1534.87326 978.185419,1866.53361 685.282501,1695.46653 C490.01389,1581.42181 790.262947,1282.87828 1586.02967,799.835966 Z" id="Path-2_22" opacity="0.581837105" transform="translate(1341.990917, 1271.108737) rotate(189.000000) translate(-1341.990917, -1271.108737) "></path>
                    <path d="M1543.1671,835.13985 C1875.00908,966.896728 2032.1208,1118.93619 2014.50225,1291.25823 C1988.07443,1549.74129 1003.63399,1830.5404 713.529518,1657.67483 C520.126535,1542.43111 796.672397,1268.25279 1543.1671,835.13985 Z" id="Path-2_21" opacity="0.524021581" transform="translate(1334.834648, 1273.065795) rotate(180.000000) translate(-1334.834648, -1273.065795) "></path>
                    <path d="M1501.39091,863.640535 C1822.61787,1001.74031 1978.63815,1153.46005 1969.45175,1318.79977 C1955.67214,1566.80934 1032.19535,1803.89939 748.839739,1627.62636 C559.935996,1510.11101 810.786388,1255.44907 1501.39091,863.640535 Z" id="Path-2_20" opacity="0.850098462" transform="translate(1328.907262, 1276.160139) rotate(171.000000) translate(-1328.907262, -1276.160139) "></path>
                    <path d="M1464.11778,885.118128 C1770.59527,1029.05525 1922.83702,1181.28926 1920.84302,1341.82016 C1917.85202,1582.61652 1062.13821,1785.53811 789.615286,1605.60907 C607.933334,1485.65638 832.767498,1245.49273 1464.11778,885.118128 Z" id="Path-2_19" opacity="0.152291036" transform="translate(1324.789537, 1279.768794) rotate(162.000000) translate(-1324.789537, -1279.768794) "></path>
                    <path d="M1434.07464,900.378996 C1722.20894,1048.42315 1867.97884,1201.10115 1871.38432,1358.41298 C1876.49253,1594.38072 1091.7724,1773.87748 833.861978,1591.32329 C661.921697,1469.62049 861.992583,1239.30573 1434.07464,900.378996 Z" id="Path-2_18" opacity="0.284729483" transform="translate(1322.834578, 1283.320010) rotate(153.000000) translate(-1322.834578, -1283.320010) "></path>
                    <path d="M1413.02192,910.779026 C1680.09444,1060.25711 1816.97703,1212.48555 1823.66967,1367.46434 C1833.70864,1599.93253 1119.59443,1766.7217 879.399069,1583.63991 C719.268829,1461.58538 897.143114,1237.29842 1413.02192,910.779026 Z" id="Path-2_17" opacity="0.0038138468" transform="translate(1323.138518, 1286.202546) rotate(144.000000) translate(-1323.138518, -1286.202546) "></path>
                    <path d="M1401.32933,917.807467 C1645.7114,1065.46692 1771.80208,1215.69333 1779.60137,1368.48667 C1791.3003,1597.67669 1144.13211,1761.31334 923.804852,1580.55548 C776.920012,1460.05025 936.094839,1239.13424 1401.32933,917.807467 Z" id="Path-2_16" opacity="0.559594606" transform="translate(1325.346404, 1287.794491) rotate(135.000000) translate(-1325.346404, -1287.794491) "></path>
                    <path d="M1398.08666,922.900603 C1619.31874,1065.30866 1733.38319,1211.54558 1740.27999,1361.61136 C1750.62519,1586.71003 1164.14931,1754.66447 964.746,1579.46457 C831.81046,1462.66463 976.257345,1243.80998 1398.08666,922.900603 Z" id="Path-2_15" opacity="0.0593389799" transform="translate(1328.689553, 1287.593443) rotate(126.000000) translate(-1328.689553, -1287.593443) "></path>
                    <path d="M1401.33559,927.53415 C1600.071,1061.46597 1701.61803,1201.54567 1705.97666,1347.77326 C1712.5146,1567.11465 1178.79607,1744.15229 1000.26057,1577.74191 C881.236892,1466.80165 1014.92857,1250.06573 1401.33559,927.53415 Z" id="Path-2_14" opacity="0.119446108" transform="translate(1332.126752, 1285.453976) rotate(117.000000) translate(-1332.126752, -1285.453976) "></path>
                    <path d="M1408.53572,933.324658 C1586.36423,1056.09727 1675.63023,1187.92632 1676.33374,1328.81181 C1677.3856,1540.14005 1187.8364,1728.05341 1029.11138,1573.30763 C923.294699,1470.14378 1049.76948,1256.81612 1408.53572,933.324658 Z" id="Path-2_13" opacity="0.0477757485" transform="translate(1334.646395, 1281.731846) rotate(108.000000) translate(-1334.646395, -1281.731846) "></path>
                    <path d="M1417.06544,941.980267 C1576.24506,1051.69713 1654.09456,1173.48097 1650.61392,1307.33179 C1645.39296,1508.10801 1191.79039,1705.80632 1051.03271,1564.95999 C957.194252,1471.06244 1079.20516,1263.40253 1417.06544,941.980267 Z" id="Path-2_12" opacity="0.492835201" transform="translate(1335.580906, 1277.251185) rotate(99.000000) translate(-1335.580906, -1277.251185) "></path>
                    <path d="M1424.69529,955.02306 C1567.82965,1050.7112 1635.59711,1161.12951 1627.99765,1286.27801 C1616.59846,1474.00076 1191.97691,1677.93048 1066.8453,1552.38724 C983.424234,1468.69175 1102.70756,1269.57036 1424.69529,955.02306 Z" id="Path-2_11" opacity="0.692039221" transform="translate(1334.834648, 1273.065795) rotate(90.000000) translate(-1334.834648, -1273.065795) "></path>
                    <path d="M1429.95078,973.32943 C1559.65329,1054.95091 1618.93822,1153.25591 1607.80557,1268.24444 C1591.10659,1440.72724 1190.42642,1645.53346 1078.40318,1535.796 C1003.72102,1462.6377 1120.90355,1275.14884 1429.95078,973.32943 Z" id="Path-2_10" opacity="0.577681014" transform="translate(1332.863289, 1270.006223) rotate(81.000000) translate(-1332.863289, -1270.006223) "></path>
                    <path d="M1432.05805,996.919855 C1550.64407,1065.27471 1603.095,1151.31679 1589.41082,1255.04609 C1568.88457,1410.64004 1189.41457,1609.99096 1088.12022,1515.69981 C1020.59066,1452.83904 1135.2366,1279.91239 1432.05805,996.919855 Z" id="Path-2_9" opacity="0.878844145" transform="translate(1330.440258, 1268.481677) rotate(72.000000) translate(-1330.440258, -1268.481677) "></path>
                    <path d="M1430.79343,1024.94352 C1540.0353,1081.48181 1587.14592,1155.66332 1572.12531,1247.48807 C1549.59438,1385.22519 1190.98049,1572.69029 1098.44451,1492.76058 C1036.75386,1439.4741 1147.53683,1283.53508 1430.79343,1024.94352 Z" id="Path-2_8" opacity="0.895540981" transform="translate(1328.372051, 1268.427376) rotate(63.000000) translate(-1328.372051, -1268.427376) "></path>
                    <path d="M1426.27866,1055.91105 C1527.24961,1102.47606 1570.19219,1165.63514 1555.10641,1245.38829 C1532.47774,1365.01802 1196.51137,1534.86989 1111.36825,1467.71242 C1054.60616,1422.94078 1159.5763,1285.67365 1426.27866,1055.91105 Z" id="Path-2_7" opacity="0.613482622" transform="translate(1327.237509, 1269.420098) rotate(54.000000) translate(-1327.237509, -1269.420098) "></path>
                    <path d="M1418.85595,1088.01759 C1511.87638,1126.56441 1551.39045,1179.81687 1537.39815,1247.77497 C1516.40971,1349.71213 1206.54404,1497.57548 1128.1355,1441.35872 C1075.86314,1403.88089 1172.76995,1286.10051 1418.85595,1088.01759 Z" id="Path-2_6" opacity="0.293587258" transform="translate(1327.270396, 1270.871969) rotate(45.000000) translate(-1327.270396, -1270.871969) "></path>
                    <path d="M1409.01814,1119.50852 C1493.70447,1151.83197 1530.05144,1196.39028 1518.05907,1253.18346 C1500.07051,1338.37323 1220.76243,1461.64075 1149.13879,1414.56229 C1101.3897,1383.17664 1188.01615,1284.82539 1409.01814,1119.50852 Z" id="Path-2_5" opacity="0.168210253" transform="translate(1328.351915, 1272.231787) rotate(36.000000) translate(-1328.351915, -1272.231787) "></path>
                    <path d="M1397.38854,1148.99357 C1472.79207,1176.5007 1505.77768,1213.49553 1496.34539,1259.97805 C1482.19695,1329.70184 1238.17039,1427.67901 1173.99706,1388.20994 C1131.21484,1361.89722 1205.67866,1282.15843 1397.38854,1148.99357 Z" id="Path-2_4" opacity="0.13526562" transform="translate(1330.103661, 1273.135997) rotate(27.000000) translate(-1330.103661, -1273.135997) "></path>
                    <path d="M1384.71445,1175.65624 C1449.52669,1199.21105 1478.58423,1229.53899 1471.88709,1266.64006 C1461.84139,1322.29166 1257.37363,1396.06774 1201.76053,1363.13909 C1164.68513,1341.18665 1225.66977,1278.69237 1384.71445,1175.65624 Z" id="Path-2_3" opacity="0.600373345" transform="translate(1332.037551, 1273.475751) rotate(18.000000) translate(-1332.037551, -1273.475751) "></path>
                    <path d="M1371.84633,1199.14087 C1424.63726,1219.05481 1448.95443,1243.33681 1444.79785,1271.98686 C1438.56297,1314.96194 1276.88299,1367.15996 1231.16731,1340.19483 C1200.69019,1322.21808 1247.5832,1275.20009 1371.84633,1199.14087 Z" id="Path-2_2" opacity="0.521756791" transform="translate(1333.708116, 1273.369380) rotate(9.000000) translate(-1333.708116, -1273.369380) "></path>
                    <path d="M1359.73251,1220.12104 C1399.39101,1236.0503 1418.16747,1254.4317 1416.06187,1275.26524 C1412.90348,1306.51555 1295.25278,1340.46385 1260.58233,1319.56459 C1237.4687,1305.63176 1270.51876,1272.48391 1359.73251,1220.12104 Z" id="Path-2_1" opacity="0.505888532"></path>
                </g>
                <g id="Path_looper" transform="translate(1881.000000, 1446.500000) rotate(-15.000000) translate(-1881.000000, -1446.500000) translate(1505.000000, 1306.000000)">
                    <polygon id="Path_15" fill="url(#linearGradient-1)" opacity="0.3" transform="translate(612.523269, 140.517204) rotate(210.000000) translate(-612.523269, -140.517204) " points="541.663668 37.4448067 511.09306 243.541089 713.953478 243.589602"></polygon>
                    <polygon id="Path_14" fill="url(#linearGradient-2)" opacity="0.3" transform="translate(574.043699, 140.527786) rotate(195.000000) translate(-574.043699, -140.527786) " points="504.665028 39.5346289 474.704151 241.493508 673.383247 241.520942"></polygon>
                    <polygon id="Path_13" fill="url(#linearGradient-3)" opacity="0.3" transform="translate(536.210824, 140.419860) rotate(180.000000) translate(-536.210824, -140.419860) " points="468.49331 41.4198598 439.210824 239.41986 633.210824 239.41986"></polygon>
                    <polygon id="Path_12" fill="url(#linearGradient-4)" opacity="0.3" transform="translate(497.094345, 140.520648) rotate(165.000000) translate(-497.094345, -140.520648) " points="430.675019 43.6984708 401.915616 237.342825 592.273075 237.31654"></polygon>
                    <polygon id="Path_11" fill="url(#linearGradient-5)" opacity="0.3" transform="translate(458.608337, 140.507986) rotate(150.000000) translate(-458.608337, -140.507986) " points="393.653384 45.7746113 365.500607 235.241362 551.716068 235.19683"></polygon>
                    <polygon id="Path_10" fill="url(#linearGradient-6)" opacity="0.3" transform="translate(420.115021, 140.503341) rotate(135.000000) translate(-420.115021, -140.503341) " points="356.609672 47.8626803 329.075343 233.144001 511.1547 233.093729"></polygon>
                    <polygon id="Path_9" fill="url(#linearGradient-7)" opacity="0.3" transform="translate(381.621063, 140.509610) rotate(120.000000) translate(-381.621063, -140.509610) " points="319.552013 49.9620668 292.65001 231.057153 470.592116 231.014611"></polygon>
                    <polygon id="Path_8" fill="url(#linearGradient-8)" opacity="0.3" transform="translate(343.133053, 140.523876) rotate(105.000000) translate(-343.133053, -140.523876) " points="282.491916 52.0663771 256.234415 228.981375 430.031691 228.957388"></polygon>
                    <polygon id="Path_7" fill="url(#linearGradient-9)" opacity="0.3" transform="translate(304.184887, 140.882906) rotate(90.000000) translate(-304.184887, -140.882906) " points="244.844797 54.3829062 219.184887 227.382906 389.184887 227.382906"></polygon>
                    <polygon id="Path_6" fill="url(#linearGradient-10)" opacity="0.3" transform="translate(266.168776, 140.551976) rotate(75.000000) translate(-266.168776, -140.551976) " points="208.386066 56.2454348 183.432947 224.83568 348.904605 224.858517"></polygon>
                    <polygon id="Path_5" fill="url(#linearGradient-11)" opacity="0.3" transform="translate(227.688590, 140.559838) rotate(60.000000) translate(-227.688590, -140.559838) " points="171.348589 58.3176538 147.042315 222.763462 308.334866 222.802023"></polygon>
                    <polygon id="Path_4" fill="url(#linearGradient-12)" opacity="0.3" transform="translate(189.208464, 140.560443) rotate(45.000000) translate(-189.208464, -140.560443) " points="134.324018 60.3846434 110.654226 220.692866 267.762701 220.736243"></polygon>
                    <polygon id="Path_3" fill="url(#linearGradient-13)" opacity="0.3" transform="translate(150.723768, 140.555392) rotate(30.000000) translate(-150.723768, -140.555392) " points="97.306337 62.4514224 74.2609944 218.622791 227.186541 218.659362"></polygon>
                    <polygon id="Path_2" fill="url(#linearGradient-14)" opacity="0.3" transform="translate(112.232586, 140.725493) rotate(15.000000) translate(-112.232586, -140.725493) " points="60.2892303 64.5242429 37.857951 216.906203 186.607222 216.926743"></polygon>
                    <polygon id="Path_1" fill="url(#linearGradient-15)" opacity="0.3" points="22.5504383 65.6558829 0.513104075 214.655883 146.513104 214.655883"></polygon>
                </g>
                <g id="Path_looper" transform="translate(688.000000, 2410.500000) rotate(70.000000) translate(-688.000000, -2410.500000) translate(312.000000, 2270.000000)">
                    <polygon id="Path_15" fill="url(#linearGradient-1)" opacity="0.3" transform="translate(612.523269, 140.517204) rotate(210.000000) translate(-612.523269, -140.517204) " points="541.663668 37.4448067 511.09306 243.541089 713.953478 243.589602"></polygon>
                    <polygon id="Path_14" fill="url(#linearGradient-2)" opacity="0.3" transform="translate(574.043699, 140.527786) rotate(195.000000) translate(-574.043699, -140.527786) " points="504.665028 39.5346289 474.704151 241.493508 673.383247 241.520942"></polygon>
                    <polygon id="Path_13" fill="url(#linearGradient-3)" opacity="0.3" transform="translate(536.210824, 140.419860) rotate(180.000000) translate(-536.210824, -140.419860) " points="468.49331 41.4198598 439.210824 239.41986 633.210824 239.41986"></polygon>
                    <polygon id="Path_12" fill="url(#linearGradient-4)" opacity="0.3" transform="translate(497.094345, 140.520648) rotate(165.000000) translate(-497.094345, -140.520648) " points="430.675019 43.6984708 401.915616 237.342825 592.273075 237.31654"></polygon>
                    <polygon id="Path_11" fill="url(#linearGradient-5)" opacity="0.3" transform="translate(458.608337, 140.507986) rotate(150.000000) translate(-458.608337, -140.507986) " points="393.653384 45.7746113 365.500607 235.241362 551.716068 235.19683"></polygon>
                    <polygon id="Path_10" fill="url(#linearGradient-6)" opacity="0.3" transform="translate(420.115021, 140.503341) rotate(135.000000) translate(-420.115021, -140.503341) " points="356.609672 47.8626803 329.075343 233.144001 511.1547 233.093729"></polygon>
                    <polygon id="Path_9" fill="url(#linearGradient-7)" opacity="0.3" transform="translate(381.621063, 140.509610) rotate(120.000000) translate(-381.621063, -140.509610) " points="319.552013 49.9620668 292.65001 231.057153 470.592116 231.014611"></polygon>
                    <polygon id="Path_8" fill="url(#linearGradient-8)" opacity="0.3" transform="translate(343.133053, 140.523876) rotate(105.000000) translate(-343.133053, -140.523876) " points="282.491916 52.0663771 256.234415 228.981375 430.031691 228.957388"></polygon>
                    <polygon id="Path_7" fill="url(#linearGradient-9)" opacity="0.3" transform="translate(304.184887, 140.882906) rotate(90.000000) translate(-304.184887, -140.882906) " points="244.844797 54.3829062 219.184887 227.382906 389.184887 227.382906"></polygon>
                    <polygon id="Path_6" fill="url(#linearGradient-10)" opacity="0.3" transform="translate(266.168776, 140.551976) rotate(75.000000) translate(-266.168776, -140.551976) " points="208.386066 56.2454348 183.432947 224.83568 348.904605 224.858517"></polygon>
                    <polygon id="Path_5" fill="url(#linearGradient-11)" opacity="0.3" transform="translate(227.688590, 140.559838) rotate(60.000000) translate(-227.688590, -140.559838) " points="171.348589 58.3176538 147.042315 222.763462 308.334866 222.802023"></polygon>
                    <polygon id="Path_4" fill="url(#linearGradient-12)" opacity="0.3" transform="translate(189.208464, 140.560443) rotate(45.000000) translate(-189.208464, -140.560443) " points="134.324018 60.3846434 110.654226 220.692866 267.762701 220.736243"></polygon>
                    <polygon id="Path_3" fill="url(#linearGradient-13)" opacity="0.3" transform="translate(150.723768, 140.555392) rotate(30.000000) translate(-150.723768, -140.555392) " points="97.306337 62.4514224 74.2609944 218.622791 227.186541 218.659362"></polygon>
                    <polygon id="Path_2" fill="url(#linearGradient-14)" opacity="0.3" transform="translate(112.232586, 140.725493) rotate(15.000000) translate(-112.232586, -140.725493) " points="60.2892303 64.5242429 37.857951 216.906203 186.607222 216.926743"></polygon>
                    <polygon id="Path_1" fill="url(#linearGradient-15)" opacity="0.3" points="22.5504383 65.6558829 0.513104075 214.655883 146.513104 214.655883"></polygon>
                </g>
                <g id="Path_looper" transform="translate(1997.000000, 3356.500000) rotate(-61.000000) translate(-1997.000000, -3356.500000) translate(1621.000000, 3216.000000)">
                    <polygon id="Path_15" fill="url(#linearGradient-1)" opacity="0.3" transform="translate(612.523269, 140.517204) rotate(210.000000) translate(-612.523269, -140.517204) " points="541.663668 37.4448067 511.09306 243.541089 713.953478 243.589602"></polygon>
                    <polygon id="Path_14" fill="url(#linearGradient-2)" opacity="0.3" transform="translate(574.043699, 140.527786) rotate(195.000000) translate(-574.043699, -140.527786) " points="504.665028 39.5346289 474.704151 241.493508 673.383247 241.520942"></polygon>
                    <polygon id="Path_13" fill="url(#linearGradient-3)" opacity="0.3" transform="translate(536.210824, 140.419860) rotate(180.000000) translate(-536.210824, -140.419860) " points="468.49331 41.4198598 439.210824 239.41986 633.210824 239.41986"></polygon>
                    <polygon id="Path_12" fill="url(#linearGradient-4)" opacity="0.3" transform="translate(497.094345, 140.520648) rotate(165.000000) translate(-497.094345, -140.520648) " points="430.675019 43.6984708 401.915616 237.342825 592.273075 237.31654"></polygon>
                    <polygon id="Path_11" fill="url(#linearGradient-5)" opacity="0.3" transform="translate(458.608337, 140.507986) rotate(150.000000) translate(-458.608337, -140.507986) " points="393.653384 45.7746113 365.500607 235.241362 551.716068 235.19683"></polygon>
                    <polygon id="Path_10" fill="url(#linearGradient-6)" opacity="0.3" transform="translate(420.115021, 140.503341) rotate(135.000000) translate(-420.115021, -140.503341) " points="356.609672 47.8626803 329.075343 233.144001 511.1547 233.093729"></polygon>
                    <polygon id="Path_9" fill="url(#linearGradient-7)" opacity="0.3" transform="translate(381.621063, 140.509610) rotate(120.000000) translate(-381.621063, -140.509610) " points="319.552013 49.9620668 292.65001 231.057153 470.592116 231.014611"></polygon>
                    <polygon id="Path_8" fill="url(#linearGradient-8)" opacity="0.3" transform="translate(343.133053, 140.523876) rotate(105.000000) translate(-343.133053, -140.523876) " points="282.491916 52.0663771 256.234415 228.981375 430.031691 228.957388"></polygon>
                    <polygon id="Path_7" fill="url(#linearGradient-9)" opacity="0.3" transform="translate(304.184887, 140.882906) rotate(90.000000) translate(-304.184887, -140.882906) " points="244.844797 54.3829062 219.184887 227.382906 389.184887 227.382906"></polygon>
                    <polygon id="Path_6" fill="url(#linearGradient-10)" opacity="0.3" transform="translate(266.168776, 140.551976) rotate(75.000000) translate(-266.168776, -140.551976) " points="208.386066 56.2454348 183.432947 224.83568 348.904605 224.858517"></polygon>
                    <polygon id="Path_5" fill="url(#linearGradient-11)" opacity="0.3" transform="translate(227.688590, 140.559838) rotate(60.000000) translate(-227.688590, -140.559838) " points="171.348589 58.3176538 147.042315 222.763462 308.334866 222.802023"></polygon>
                    <polygon id="Path_4" fill="url(#linearGradient-12)" opacity="0.3" transform="translate(189.208464, 140.560443) rotate(45.000000) translate(-189.208464, -140.560443) " points="134.324018 60.3846434 110.654226 220.692866 267.762701 220.736243"></polygon>
                    <polygon id="Path_3" fill="url(#linearGradient-13)" opacity="0.3" transform="translate(150.723768, 140.555392) rotate(30.000000) translate(-150.723768, -140.555392) " points="97.306337 62.4514224 74.2609944 218.622791 227.186541 218.659362"></polygon>
                    <polygon id="Path_2" fill="url(#linearGradient-14)" opacity="0.3" transform="translate(112.232586, 140.725493) rotate(15.000000) translate(-112.232586, -140.725493) " points="60.2892303 64.5242429 37.857951 216.906203 186.607222 216.926743"></polygon>
                    <polygon id="Path_1" fill="url(#linearGradient-15)" opacity="0.3" points="22.5504383 65.6558829 0.513104075 214.655883 146.513104 214.655883"></polygon>
                </g>
            </g>
        </g>
    </g>
</svg>