<?xml version="1.0" encoding="utf-8"?>
<!-- Generator: Adobe Illustrator 24.3.0, SVG Export Plug-In . SVG Version: 6.00 Build 0)  -->
<svg version="1.1" id="Layer_1" xmlns="http://www.w3.org/2000/svg" xmlns:xlink="http://www.w3.org/1999/xlink" x="0px" y="0px"
	 viewBox="0 0 23.1 23.1" style="enable-background:new 0 0 23.1 23.1;" xml:space="preserve">
<path d="M-1.9-1.9"/>
<g>
	<path d="M18.5,11.6c0,3.9-3.1,7-7,7s-7-3.1-7-7c0-0.5,0-0.9,0.1-1.3H0v9.3c0,2,1.6,3.6,3.6,3.6c0,0,0,0,0,0h15.9
		c2,0,3.6-1.6,3.6-3.6v-9.3h-4.7C18.5,10.7,18.5,11.1,18.5,11.6L18.5,11.6z M19.5,0H3.6C1.6,0,0,1.6,0,3.6v3.9h5.9
		c2.2-3.2,6.6-3.9,9.7-1.7c0.7,0.5,1.2,1,1.7,1.7h5.9V3.6C23.1,1.6,21.5,0,19.5,0z M21.3,4.5c0,0.4-0.3,0.6-0.6,0.6h-1.9
		c-0.4,0-0.6-0.3-0.6-0.6V2.5c0-0.4,0.3-0.6,0.6-0.6h1.9c0.4,0,0.6,0.3,0.6,0.6V4.5z M15.9,11.6c0-2.4-1.9-4.3-4.3-4.3
		s-4.3,1.9-4.3,4.3s1.9,4.3,4.3,4.3C13.9,15.9,15.9,13.9,15.9,11.6C15.9,11.6,15.9,11.6,15.9,11.6z"/>
</g>
</svg>
