<?xml version="1.0" encoding="utf-8"?>
<!-- Generator: Adobe Illustrator 24.3.0, SVG Export Plug-In . SVG Version: 6.00 Build 0)  -->
<svg version="1.1" id="Capa_1" xmlns="http://www.w3.org/2000/svg" xmlns:xlink="http://www.w3.org/1999/xlink" x="0px" y="0px"
	 viewBox="0 0 25 25" style="enable-background:new 0 0 25 25;" xml:space="preserve">
<g>
	<path d="M3.3,0C1.5,0,0,1.5,0,3.3s1.5,3.3,3.3,3.3c1.8,0,3.3-1.5,3.3-3.3c0,0,0,0,0,0C6.7,1.5,5.2,0,3.3,0z"/>
	<path d="M5.8,8h-5C0.6,8,0.4,8.2,0.4,8.4l0,0v16.1c0,0.2,0.2,0.4,0.4,0.4h5c0.2,0,0.4-0.2,0.4-0.4V8.4C6.3,8.2,6.1,8,5.8,8
		C5.8,8,5.8,8,5.8,8z"/>
	<path d="M18.6,7.8c-1.6-0.1-3.2,0.5-4.4,1.5V8.4C14.2,8.2,14,8,13.8,8c0,0,0,0,0,0H9C8.7,8,8.5,8.2,8.5,8.4c0,0,0,0,0,0v16.1
		C8.5,24.8,8.7,25,9,25h5c0.2,0,0.4-0.2,0.4-0.4v-8c0-2.3,0.4-3.7,2.5-3.7c2.1,0,2.2,1.5,2.2,3.8v7.8c0,0.2,0.2,0.4,0.4,0.4h5
		c0.2,0,0.4-0.2,0.4-0.4v-8.8C25,12,24.3,7.8,18.6,7.8z"/>
</g>
</svg>
